<svg width="36" height="31" viewBox="0 0 36 31" fill="none" xmlns="http://www.w3.org/2000/svg">
<path d="M2.91905 28.5688C2.91905 29.7546 3.87703 30.7126 5.06278 30.7126H30.7875C31.9732 30.7126 32.9312 29.7546 32.9312 28.5688V9.27532H2.91905V28.5688ZM13.6377 14.3667C13.6377 13.9245 13.9994 13.5628 14.4416 13.5628H21.4087C21.8508 13.5628 22.2126 13.9245 22.2126 14.3667V14.9026C22.2126 15.3447 21.8508 15.7065 21.4087 15.7065H14.4416C13.9994 15.7065 13.6377 15.3447 13.6377 14.9026V14.3667ZM32.9312 0.700424H2.91905C1.73331 0.700424 0.77533 1.6584 0.77533 2.84415V6.05974C0.77533 6.64926 1.25767 7.1316 1.84719 7.1316H34.0031C34.5926 7.1316 35.0749 6.64926 35.0749 6.05974V2.84415C35.0749 1.6584 34.1169 0.700424 32.9312 0.700424Z" fill="#68322C"/>
</svg>
