<svg width="73" height="73" viewBox="0 0 73 73" fill="none" xmlns="http://www.w3.org/2000/svg">
<path d="M46.3162 26.3967C54.7888 34.8782 54.6725 48.476 46.3672 56.8274C46.3516 56.8444 46.3332 56.8628 46.3162 56.8798L36.7867 66.4093C28.3817 74.8143 14.7073 74.8132 6.3036 66.4093C-2.10138 58.0058 -2.10138 44.3298 6.3036 35.9263L11.5655 30.6643C12.9609 29.2689 15.364 30.1964 15.436 32.1683C15.5279 34.6815 15.9786 37.2064 16.8102 39.6446C17.0918 40.4702 16.8906 41.3835 16.2737 42.0003L14.4179 43.8562C10.4435 47.8305 10.3189 54.3018 14.2541 58.3149C18.2281 62.3677 24.7601 62.3918 28.7646 58.3873L38.2941 48.8592C42.2918 44.8614 42.2751 38.3998 38.2941 34.4188C37.7693 33.895 37.2406 33.488 36.8277 33.2037C36.5355 33.0031 36.2943 32.737 36.1233 32.4266C35.9522 32.1162 35.8561 31.7702 35.8425 31.416C35.7864 29.9176 36.3173 28.3734 37.5014 27.1893L40.487 24.2035C41.27 23.4206 42.4982 23.3245 43.406 23.9581C44.4457 24.6841 45.4195 25.5001 46.3162 26.3967V26.3967ZM66.3019 6.41002C57.8982 -1.99382 44.2238 -1.99496 35.8188 6.41002L26.2893 15.9395C26.2723 15.9565 26.2539 15.975 26.2383 15.992C17.9331 24.3434 17.8167 37.9412 26.2893 46.4226C27.186 47.3192 28.1597 48.1352 29.1994 48.8611C30.1072 49.4947 31.3356 49.3985 32.1184 48.6157L35.104 45.6299C36.2881 44.4458 36.819 42.9017 36.7629 41.4032C36.7493 41.0491 36.6531 40.703 36.4821 40.3926C36.3111 40.0823 36.0699 39.8161 35.7777 39.6155C35.3648 39.3312 34.8361 38.9242 34.3113 38.4004C30.3303 34.4194 30.3136 27.9578 34.3113 23.9601L43.8408 14.432C47.8453 10.4274 54.3771 10.4515 58.3513 14.5043C62.2865 18.5175 62.162 24.9887 58.1875 28.9631L56.3317 30.8189C55.7148 31.4358 55.5136 32.349 55.7952 33.1746C56.6268 35.6129 57.0775 38.1378 57.1693 40.6509C57.2415 42.6229 59.6445 43.5503 61.0399 42.1549L66.3018 36.893C74.7069 28.4895 74.7069 14.8136 66.3019 6.41002V6.41002Z" fill="#68322C"/>
</svg>
