<svg width="392" height="47" viewBox="0 0 392 47" fill="none" xmlns="http://www.w3.org/2000/svg">
<path d="M84.9577 43.0074V4.62935H110.654V11.8841H93.5969V19.9141H108.771V27.1689H93.5969V43.0074H84.9577ZM123.58 23.7907C123.58 25.6736 123.801 27.3719 124.244 28.8856C124.724 30.3993 125.389 31.71 126.238 32.8176C127.124 33.8883 128.195 34.719 129.45 35.3097C130.705 35.9004 132.145 36.1957 133.77 36.1957C135.357 36.1957 136.779 35.9004 138.034 35.3097C139.326 34.719 140.397 33.8883 141.246 32.8176C142.132 31.71 142.797 30.3993 143.24 28.8856C143.72 27.3719 143.959 25.6736 143.959 23.7907C143.959 21.9078 143.72 20.2095 143.24 18.6958C142.797 17.1451 142.132 15.8345 141.246 14.7638C140.397 13.6562 139.326 12.8071 138.034 12.2164C136.779 11.6256 135.357 11.3303 133.77 11.3303C132.145 11.3303 130.705 11.6441 129.45 12.2717C128.195 12.8625 127.124 13.7116 126.238 14.8192C125.389 15.8899 124.724 17.2005 124.244 18.7512C123.801 20.2649 123.58 21.9447 123.58 23.7907ZM152.876 23.7907C152.876 27.0766 152.377 29.9748 151.38 32.4853C150.42 34.9589 149.091 37.0449 147.393 38.7432C145.695 40.4046 143.664 41.6599 141.301 42.509C138.975 43.3582 136.465 43.7828 133.77 43.7828C131.148 43.7828 128.675 43.3582 126.349 42.509C124.023 41.6599 121.992 40.4046 120.257 38.7432C118.522 37.0449 117.156 34.9589 116.159 32.4853C115.162 29.9748 114.664 27.0766 114.664 23.7907C114.664 20.5048 115.181 17.6251 116.214 15.1515C117.248 12.6409 118.633 10.5365 120.368 8.8382C122.14 7.13989 124.17 5.86616 126.46 5.017C128.785 4.16785 131.222 3.74327 133.77 3.74327C136.391 3.74327 138.865 4.16785 141.191 5.017C143.516 5.86616 145.547 7.13989 147.282 8.8382C149.017 10.5365 150.384 12.6409 151.38 15.1515C152.377 17.6251 152.876 20.5048 152.876 23.7907ZM187.244 4.62935V11.9948H175.67V43.0074H167.031V11.9948H155.456V4.62935H187.244ZM198.753 23.7907C198.753 25.6736 198.975 27.3719 199.418 28.8856C199.898 30.3993 200.562 31.71 201.412 32.8176C202.298 33.8883 203.368 34.719 204.624 35.3097C205.879 35.9004 207.319 36.1957 208.943 36.1957C210.531 36.1957 211.952 35.9004 213.207 35.3097C214.5 34.719 215.57 33.8883 216.419 32.8176C217.306 31.71 217.97 30.3993 218.413 28.8856C218.893 27.3719 219.133 25.6736 219.133 23.7907C219.133 21.9078 218.893 20.2095 218.413 18.6958C217.97 17.1451 217.306 15.8345 216.419 14.7638C215.57 13.6562 214.5 12.8071 213.207 12.2164C211.952 11.6256 210.531 11.3303 208.943 11.3303C207.319 11.3303 205.879 11.6441 204.624 12.2717C203.368 12.8625 202.298 13.7116 201.412 14.8192C200.562 15.8899 199.898 17.2005 199.418 18.7512C198.975 20.2649 198.753 21.9447 198.753 23.7907ZM228.049 23.7907C228.049 27.0766 227.551 29.9748 226.554 32.4853C225.594 34.9589 224.265 37.0449 222.567 38.7432C220.868 40.4046 218.838 41.6599 216.475 42.509C214.149 43.3582 211.638 43.7828 208.943 43.7828C206.322 43.7828 203.848 43.3582 201.522 42.509C199.196 41.6599 197.166 40.4046 195.431 38.7432C193.695 37.0449 192.329 34.9589 191.332 32.4853C190.336 29.9748 189.837 27.0766 189.837 23.7907C189.837 20.5048 190.354 17.6251 191.388 15.1515C192.422 12.6409 193.806 10.5365 195.541 8.8382C197.313 7.13989 199.344 5.86616 201.633 5.017C203.959 4.16785 206.396 3.74327 208.943 3.74327C211.564 3.74327 214.038 4.16785 216.364 5.017C218.69 5.86616 220.721 7.13989 222.456 8.8382C224.191 10.5365 225.557 12.6409 226.554 15.1515C227.551 17.6251 228.049 20.5048 228.049 23.7907ZM243.89 35.9742C244.296 36.0111 244.758 36.0481 245.274 36.085C245.828 36.085 246.474 36.085 247.213 36.085C251.532 36.085 254.726 34.9959 256.793 32.8176C258.898 30.6393 259.95 27.6304 259.95 23.7907C259.95 19.7665 258.953 16.7206 256.96 14.6531C254.966 12.5856 251.809 11.5518 247.49 11.5518C246.899 11.5518 246.29 11.5703 245.662 11.6072C245.034 11.6072 244.444 11.6441 243.89 11.7179V35.9742ZM268.866 23.7907C268.866 27.1135 268.349 30.0117 267.316 32.4853C266.282 34.9589 264.805 37.008 262.885 38.6325C261.002 40.2569 258.695 41.4753 255.963 42.2875C253.231 43.0997 250.166 43.5059 246.77 43.5059C245.219 43.5059 243.41 43.432 241.342 43.2843C239.275 43.1736 237.244 42.9151 235.251 42.509V5.12776C237.244 4.75856 239.312 4.51859 241.453 4.40783C243.631 4.26015 245.496 4.18631 247.047 4.18631C250.332 4.18631 253.304 4.5555 255.963 5.2939C258.658 6.0323 260.965 7.19527 262.885 8.78282C264.805 10.3704 266.282 12.401 267.316 14.8746C268.349 17.3482 268.866 20.3202 268.866 23.7907ZM300.372 43.0074C299.966 41.6783 299.505 40.3123 298.988 38.9094C298.508 37.5064 298.028 36.1034 297.548 34.7005H282.596C282.116 36.1034 281.617 37.5064 281.1 38.9094C280.62 40.3123 280.177 41.6783 279.771 43.0074H270.8C272.24 38.8724 273.606 35.0512 274.898 31.5439C276.19 28.0365 277.445 24.7322 278.664 21.6309C279.919 18.5296 281.137 15.5945 282.319 12.8255C283.537 10.0196 284.792 7.28757 286.084 4.62935H294.336C295.591 7.28757 296.828 10.0196 298.046 12.8255C299.265 15.5945 300.483 18.5296 301.702 21.6309C302.957 24.7322 304.231 28.0365 305.523 31.5439C306.815 35.0512 308.181 38.8724 309.621 43.0074H300.372ZM290.016 13.324C289.832 13.8777 289.555 14.6346 289.186 15.5945C288.817 16.5544 288.392 17.662 287.912 18.9173C287.432 20.1726 286.897 21.5571 286.306 23.0708C285.752 24.5845 285.18 26.172 284.589 27.8334H295.499C294.908 26.172 294.336 24.5845 293.782 23.0708C293.228 21.5571 292.693 20.1726 292.176 18.9173C291.696 17.662 291.272 16.5544 290.902 15.5945C290.533 14.6346 290.238 13.8777 290.016 13.324ZM314.589 4.62935H323.228V43.0074H314.589V4.62935ZM357.752 35.5866V43.0074H332.111V4.62935H340.75V35.5866H357.752ZM371.866 20.4125C373.417 17.7912 374.894 15.1699 376.297 12.5486C377.7 9.92733 378.992 7.28757 380.173 4.62935H389.698C387.594 8.76436 385.416 12.7702 383.164 16.6467C380.912 20.5233 378.53 24.4183 376.02 28.3318V43.0074H367.38V28.4426C364.87 24.5291 362.47 20.6156 360.181 16.7021C357.929 12.7886 355.751 8.76436 353.646 4.62935H363.67C364.851 7.28757 366.125 9.92733 367.491 12.5486C368.857 15.1699 370.316 17.7912 371.866 20.4125Z" fill="white"/>
<path d="M56.645 46.859H6.7953C3.36813 46.859 0.564087 44.055 0.564087 40.6278V6.35615C0.564087 2.92899 3.36813 0.124939 6.7953 0.124939H56.645C60.0722 0.124939 62.8762 2.92899 62.8762 6.35615V40.6278C62.8762 44.055 60.0722 46.859 56.645 46.859Z" fill="#68322C"/>
<path d="M39.5091 42.1856C49.8333 42.1856 58.2028 33.8162 58.2028 23.492C58.2028 13.1678 49.8333 4.79834 39.5091 4.79834C29.1849 4.79834 20.8155 13.1678 20.8155 23.492C20.8155 33.8162 29.1849 42.1856 39.5091 42.1856Z" fill="#455A64"/>
<path d="M39.5091 37.5122C47.2523 37.5122 53.5294 31.2351 53.5294 23.492C53.5294 15.7488 47.2523 9.47176 39.5091 9.47176C31.766 9.47176 25.4889 15.7488 25.4889 23.492C25.4889 31.2351 31.766 37.5122 39.5091 37.5122Z" fill="#252422"/>
<path d="M46.9866 18.8186C45.1172 16.6376 42.3132 15.3914 39.5091 15.3914C36.7051 15.3914 33.901 16.6376 32.0317 18.8186C31.2528 19.5975 31.4086 20.8437 32.1875 21.6226C32.9664 22.4015 34.2126 22.2457 34.9915 21.4668C37.3282 18.8186 41.6901 18.8186 44.0268 21.4668C44.4941 21.9342 44.9615 22.09 45.5846 22.09C46.0519 22.09 46.5193 21.9342 46.9866 21.6226C47.6097 20.9995 47.7655 19.5975 46.9866 18.8186V18.8186Z" fill="#BB7E77"/>
<path d="M6.79523 6.35616H16.142V11.0296H6.79523V6.35616Z" fill="#BB7E77"/>
</svg>
