<svg width="129" height="129" viewBox="0 0 129 129" fill="none" xmlns="http://www.w3.org/2000/svg">
<rect x="0.301758" y="0.0111084" width="128" height="128" fill="#252422"/>
<path d="M105.563 102.693H23.0408C17.3674 102.693 12.7256 98.0514 12.7256 92.378V35.6442C12.7256 29.9708 17.3674 25.329 23.0408 25.329H105.563C111.236 25.329 115.878 29.9708 115.878 35.6442V92.378C115.878 98.0514 111.236 102.693 105.563 102.693Z" fill="#68322C"/>
<path d="M77.1958 94.9568C94.2866 94.9568 108.142 81.1019 108.142 64.0111C108.142 46.9202 94.2866 33.0654 77.1958 33.0654C60.1049 33.0654 46.2501 46.9202 46.2501 64.0111C46.2501 81.1019 60.1049 94.9568 77.1958 94.9568Z" fill="#455A64"/>
<path d="M77.1957 87.2204C90.0139 87.2204 100.405 76.8293 100.405 64.0111C100.405 51.193 90.0139 40.8018 77.1957 40.8018C64.3776 40.8018 53.9865 51.193 53.9865 64.0111C53.9865 76.8293 64.3776 87.2204 77.1957 87.2204Z" fill="#252422"/>
<path d="M89.5741 56.2747C86.4795 52.6643 81.8377 50.6013 77.1958 50.6013C72.5539 50.6013 67.9121 52.6643 64.8175 56.2747C63.5281 57.5641 63.786 59.6271 65.0754 60.9165C66.3648 62.2059 68.4278 61.9481 69.7172 60.6587C73.5855 56.2747 80.8061 56.2747 84.6743 60.6587C85.448 61.4323 86.2216 61.6902 87.2532 61.6902C88.0268 61.6902 88.8004 61.4323 89.5741 60.9165C90.6056 59.885 90.8635 57.5641 89.5741 56.2747Z" fill="#BB7E77"/>
<path d="M23.0407 35.6442H38.5136V43.3806H23.0407V35.6442Z" fill="#BB7E77"/>
</svg>
